<svg width="82" height="82" viewBox="0 0 82 82" fill="none" xmlns="http://www.w3.org/2000/svg">
<g clip-path="url(#clip0_422_18606)">
<path d="M42.297 7.00273L46.4258 7.3844L46.3424 8.27219L40.779 7.76606L40.8374 7.11059C41.4713 6.15643 42.3888 5.30183 43.5899 4.5468C44.9995 3.74198 45.6751 3.04503 45.6251 2.46423C45.6835 1.58474 45.2247 1.08692 44.2739 0.970759C43.4147 0.896085 42.8225 1.34413 42.4972 2.33148L41.4379 1.88344C41.9551 0.497826 42.9977 -0.124455 44.5574 0.0165952C46.1339 0.215725 46.9096 1.02884 46.8846 2.45594C46.9263 3.3935 46.209 4.2564 44.7243 5.02803C43.6733 5.60882 42.8726 6.26429 42.3054 6.99444L42.297 7.00273Z" fill="#5559FF"/>
<path d="M54.1412 7.84074L55.1338 8.18921L54.8335 9.03551L53.8409 8.68704L53.2404 10.3713L52.2061 10.0063L52.8066 8.32197L49.1199 7.02762L49.3702 6.33067L54.9002 2.41445L55.9345 2.77952L54.1412 7.84074ZM50.5296 6.57128L51.8224 7.01932L53.1153 7.46737L53.7241 5.74158L54.1662 4.49701C54.1662 4.49701 54.2163 4.34767 54.2997 4.13194C54.4164 3.87473 54.4915 3.71709 54.5082 3.66731L54.4915 3.70049C54.4915 3.70049 54.4415 3.75028 54.3831 3.78347C54.333 3.84984 54.2913 3.89133 54.258 3.90792C54.258 3.93281 54.2079 3.9577 54.1495 3.99089C54.0328 4.09046 53.9493 4.15683 53.9076 4.19832C53.8659 4.2398 53.7742 4.30618 53.6324 4.38915C53.1903 4.70444 52.8233 4.96165 52.5314 5.16078C52.4897 5.20226 52.423 5.24375 52.3229 5.29353C52.2395 5.3765 52.1644 5.43458 52.0977 5.45947C51.7724 5.6752 51.347 5.9656 50.8298 6.33896C50.6714 6.48001 50.5713 6.55469 50.5379 6.57128H50.5296Z" fill="#5559FF"/>
<path d="M58.0448 10.977C57.8362 10.6037 57.6277 10.2718 57.4192 9.98968C58.9122 9.25124 60.3218 8.34686 61.6564 7.30143L62.3821 8.2224C61.0141 9.18486 59.5712 10.1058 58.0448 10.9853V10.977ZM58.0448 13.3417C58.2533 13.0098 58.4034 12.6862 58.4868 12.3543C58.7204 12.5618 59.0457 12.819 59.4711 13.126C59.8965 13.5076 60.2635 13.4496 60.5637 12.96L64.8844 7.14378L65.7935 7.81585L61.2644 13.9142C60.7306 14.719 60.0549 14.8186 59.2459 14.2129C58.8455 13.9225 58.4451 13.6238 58.0531 13.3334L58.0448 13.3417ZM64.0002 15.2002C64.4173 13.7648 64.826 12.1469 65.2263 10.3465L66.2856 10.6866C66.0938 11.5163 65.7685 12.8854 65.3181 14.8103C65.2597 15.1505 65.2013 15.3994 65.1513 15.557L64.0086 15.2002H64.0002Z" fill="#5559FF"/>
<path d="M65.3681 18.8427L72.1076 14.3125L73.7257 16.702L67.1197 21.1409L66.6192 20.4025L67.103 20.0789L66.4941 19.1745L65.8769 19.5894L65.3764 18.851L65.3681 18.8427ZM69.2133 17.3409L67.2365 18.6684L67.8454 19.5728L69.8222 18.2453L69.2133 17.3409ZM69.4552 19.9877L70.1975 19.4898L72.2327 22.4851L72.8499 22.0702L73.4171 22.9082L72.7999 23.3231L73.4338 24.2607L72.6915 24.7585L72.0576 23.8209L70.4728 24.8912C69.8138 25.3642 69.255 25.2563 68.7879 24.5676C68.546 24.2607 68.2708 23.8707 67.9455 23.3978C68.0372 23.3065 68.204 23.1488 68.4292 22.9331C68.5543 22.7921 68.6378 22.7008 68.6795 22.6759C68.8463 22.9663 69.0548 23.2982 69.305 23.6633C69.5469 24.0615 69.8222 24.1445 70.1308 23.9039L71.4904 22.9912L69.4552 19.996V19.9877ZM68.7295 22.4021C68.8796 21.9292 69.0131 21.365 69.1382 20.7178L70.039 20.9999C69.989 21.2488 69.9223 21.5973 69.8389 22.0287C69.7638 22.3274 69.7054 22.5515 69.6804 22.7008L68.7212 22.4021H68.7295ZM71.8323 15.5736L69.9223 16.8597L70.5312 17.764L72.4412 16.478L71.8323 15.5736ZM72.925 18.0793L73.6674 17.5815L74.76 19.1911L75.7609 18.5191L76.3281 19.3571L75.3272 20.0291L76.4616 21.7052L75.7192 22.203L74.5849 20.527L73.6423 21.1575L75.0186 23.1903L74.2763 23.6882L71.0149 18.8841L71.7573 18.3863L73.0752 20.3195L74.0177 19.689L72.925 18.0793Z" fill="#5559FF"/>
<path d="M70.8564 28.824C70.9232 28.6747 71.0566 28.4507 71.2485 28.1603C71.3069 28.069 71.3486 27.986 71.3903 27.928C72.141 28.2184 73.4004 28.1105 75.1854 27.6127L79.4643 26.5257L80.19 29.3551L72.6915 31.2551C72.1076 31.4044 71.7239 31.197 71.5237 30.6245C71.432 30.3839 71.3402 30.0686 71.2485 29.6952C71.3903 29.6289 71.6071 29.5376 71.8991 29.4131C71.9908 29.3634 72.0659 29.3302 72.1159 29.3136C72.1159 29.4214 72.1576 29.6372 72.241 29.9607C72.2994 30.2926 72.4663 30.4088 72.7332 30.3175L74.3597 29.9027L74.0677 28.7743C72.8499 29.0564 71.774 29.073 70.8564 28.824ZM72.9834 36.7975C73.2086 35.9927 73.4338 35.3041 73.6674 34.7399C73.2336 34.4246 72.7415 34.0263 72.191 33.5451L72.6915 32.9726L72.0075 33.1468L71.7656 32.201L80.3318 30.0271L81.4912 34.549C81.316 34.5905 81.0741 34.6403 80.7572 34.6901C80.4068 34.7813 80.1483 34.8311 79.9898 34.8477C79.1724 35.0303 78.6636 34.7067 78.4467 33.877C78.3466 33.5036 78.2382 33.0638 78.1047 32.5577C78.3466 32.4665 78.6052 32.3503 78.8638 32.2092C78.9639 32.6075 79.0556 32.9643 79.1307 33.263C79.2308 33.7691 79.481 33.9931 79.8647 33.9184L80.3985 33.7857L79.7312 31.1887L77.2706 31.811L78.2048 35.47L77.254 35.7106C76.1029 35.6276 75.1937 35.4451 74.5265 35.1547C74.2596 35.7023 74.0761 36.3412 73.9676 37.063C73.8258 37.0215 73.6006 36.9552 73.3087 36.8639C73.1419 36.8307 73.0251 36.7975 72.9667 36.7892L72.9834 36.7975ZM72.9917 32.8979C73.3671 33.3128 73.7758 33.6612 74.2262 33.9516C74.7016 33.3791 75.3522 32.8232 76.178 32.2922L76.5783 32.7486L76.3948 32.035L72.9834 32.8979H72.9917ZM75.2188 28.517L74.8768 28.6L75.1604 29.6952L76.7869 29.2804L76.5033 28.1852L75.2188 28.5088V28.517ZM77.1122 34.7813L76.6618 33.0058C75.8944 33.4953 75.3606 33.9516 75.0353 34.3831C75.6608 34.6237 76.3531 34.7564 77.1122 34.7813ZM78.8554 27.5961L77.304 27.986L77.5876 29.0812L79.139 28.6913L78.8554 27.5961Z" fill="#5559FF"/>
<path d="M72.7332 45.1444C73.0501 45.1195 73.3838 45.0863 73.7258 45.0365C73.7091 45.1942 73.6757 45.3933 73.6257 45.6505C73.6006 45.8828 73.584 46.0654 73.5756 46.1898C73.4839 46.6213 73.659 46.8702 74.0928 46.9366C74.1929 46.9449 74.3764 46.9614 74.6349 46.9863C74.9686 47.0444 75.2188 47.0776 75.3689 47.0942L75.5024 45.6256C74.318 45.3601 73.4171 44.4474 72.7749 42.8793C72.9167 42.7631 73.2086 42.564 73.6507 42.2985C74.0511 43.6094 74.7017 44.3894 75.5941 44.6217L75.7109 43.3439L76.6034 43.4269L76.4699 44.8623C76.6785 44.8789 76.8953 44.9038 77.1289 44.9204L77.0371 45.9243C76.8286 45.8828 76.6117 45.8496 76.3782 45.8247L76.153 48.2226C75.7109 48.1562 75.077 48.0567 74.2596 47.9322C74.0511 47.8907 73.9093 47.8658 73.8342 47.8575C72.9501 47.7746 72.5497 47.2933 72.6331 46.4221C72.6248 46.2396 72.6498 45.8082 72.7082 45.1444H72.7332ZM74.5599 39.3364L75.7526 39.1373C76.3448 39.8426 77.0872 40.4399 77.9797 40.9461L78.1131 39.4775L78.9722 39.5522L78.8054 41.336C78.9472 41.2199 79.1891 41.0041 79.5311 40.6972C79.8147 40.4399 80.0149 40.2574 80.1316 40.1661L80.6237 40.7967L79.848 41.5435L80.8907 42.6138L81.1409 39.9421L82 40.0168L81.6497 43.7754L80.7572 43.6924L79.2141 42.1491L79.0807 42.2902L78.7637 41.9085L78.6136 43.4933L78.0297 43.4435C78.1381 44.2317 78.2883 44.8872 78.4801 45.4016C78.8221 45.1195 79.1808 44.8706 79.5728 44.6383C79.3559 44.4059 79.1557 44.1819 78.9722 43.9579L79.7646 43.485C80.3985 44.2981 81.1159 44.9619 81.9333 45.4763L81.7248 46.4719C81.4745 46.3226 81.241 46.1566 81.0241 45.9741L80.7739 48.6872L79.8397 48.6043C79.2225 48.1811 78.722 47.6833 78.33 47.1025C78.0547 47.5422 77.8128 48.123 77.621 48.8366C77.279 48.596 76.9954 48.43 76.7619 48.3305C77.0538 47.4676 77.4041 46.7457 77.8295 46.1649C77.5459 45.5178 77.3124 44.7129 77.1122 43.7588C77.4375 43.6592 77.7211 43.5513 77.963 43.4435L77.8045 43.4269L76.1196 42.9954C76.2281 42.6967 76.2864 42.481 76.2948 42.3483L77.8295 42.7631L77.8962 42.0662L74.1595 41.726C73.4338 41.6845 73.0835 41.2862 73.1336 40.5395C73.1252 40.357 73.1419 40.0168 73.1919 39.5273C73.3004 39.5107 73.4422 39.4941 73.6257 39.4858C73.8676 39.4526 74.0344 39.4277 74.1428 39.4194C74.1178 39.7264 74.0844 40.0168 74.0677 40.274C74.0094 40.6557 74.1428 40.8548 74.4848 40.8631L76.8203 41.0788C75.8944 40.581 75.1521 40.0002 74.5849 39.353L74.5599 39.3364ZM80.0065 47.5671L80.215 45.3186C79.6395 45.5758 79.1891 45.8994 78.8721 46.2894C79.0973 46.671 79.481 47.1025 80.0065 47.5671Z" fill="#5559FF"/>
<path d="M71.0483 63.6386C70.5812 63.7215 70.1475 63.622 69.7555 63.3482C69.3635 63.0744 69.1299 62.6927 69.0465 62.2198C68.9631 61.7468 69.0632 61.3154 69.3468 60.9254C69.6304 60.5355 70.0057 60.3031 70.4728 60.2285C70.9482 60.1455 71.382 60.2451 71.774 60.5272C72.166 60.8093 72.3996 61.1826 72.4746 61.6473C72.558 62.1119 72.458 62.5434 72.1827 62.9333C71.9075 63.3233 71.5238 63.5556 71.0567 63.6386H71.0483Z" fill="#5559FF"/>
<path d="M63.9418 73.7527L60.8056 68.4924L57.4775 70.4505L56.9688 69.5959L61.2977 67.0487L64.9427 73.1719L63.9418 73.761V73.7527Z" fill="#5559FF"/>
<path d="M54.1579 78.648L53.8075 77.7187L57.5359 76.3165L56.8353 74.4746L53.3321 75.7938L52.9818 74.8645L56.485 73.5453L55.7176 71.5291L51.8307 72.9894L51.4804 72.0601L56.46 70.185L58.9873 76.8392L54.1662 78.648H54.1579Z" fill="#5559FF"/>
<path d="M46.6927 80.5065L46.5176 79.5275L48.828 79.1209L47.7687 73.0972L48.9198 72.8981L49.9791 78.9218L52.2895 78.5152L52.4647 79.4943L46.6927 80.4982V80.5065Z" fill="#5559FF"/>
<path d="M43.79 81.7262C43.5899 81.5188 43.4731 81.245 43.4481 80.8965C43.4064 80.3738 43.5231 79.9008 43.79 79.4777C44.0653 79.0628 44.4657 78.7641 44.9661 78.565L45.0245 79.2205C44.7659 79.3449 44.5491 79.5192 44.3906 79.7515C44.2321 80.0087 44.1654 80.241 44.1821 80.4816C44.2405 80.4567 44.3155 80.4319 44.424 80.4236C44.6408 80.407 44.8327 80.465 44.9828 80.6061C45.158 80.7388 45.2414 80.9214 45.2581 81.1454C45.2747 81.386 45.2247 81.5768 45.0746 81.7345C44.9244 81.9004 44.7326 81.9834 44.4824 82.0083C44.2154 82.0332 43.9819 81.9419 43.79 81.7345V81.7262Z" fill="#5559FF"/>
<path d="M36.1831 80.3738C35.7077 79.9755 35.4491 79.3781 35.4324 78.6065L36.5918 78.6729C36.6669 79.1126 36.8337 79.4445 37.0839 79.6519C37.3342 79.8677 37.7262 79.9838 38.2433 80.0087C38.6937 80.0336 39.0357 80.0004 39.286 79.8843C39.5946 79.7515 39.7531 79.5109 39.7697 79.179C39.7864 78.8803 39.6446 78.6231 39.311 78.424C39.1692 78.3327 38.7688 78.1585 38.1182 77.9095C37.1674 77.5528 36.5585 77.279 36.2916 77.0964C35.6993 76.6899 35.4158 76.1672 35.4575 75.5117C35.4992 74.8728 35.7744 74.3833 36.2999 74.0431C36.8254 73.7195 37.5427 73.5702 38.4519 73.6283C39.3277 73.678 40.0116 73.8938 40.4787 74.2588C41.0542 74.7152 41.3462 75.3872 41.3378 76.2999L40.1784 76.2335C40.1284 75.6942 39.9699 75.296 39.6696 75.0471C39.4027 74.8313 38.9773 74.6986 38.3935 74.6571C37.8763 74.6239 37.4509 74.6903 37.1423 74.8396C36.8337 74.9973 36.6586 75.2213 36.6419 75.52C36.6169 75.9017 36.8337 76.2086 37.2591 76.4576C37.3926 76.5322 37.843 76.7231 38.6187 77.0052C39.4778 77.337 40.02 77.5694 40.2201 77.7021C40.7456 78.0672 40.9875 78.5567 40.9542 79.1873C40.9208 79.8179 40.6289 80.2908 40.0617 80.6227C39.5445 80.938 38.9023 81.0707 38.1349 81.021C37.2925 80.9712 36.6502 80.7637 36.1998 80.3821L36.1831 80.3738Z" fill="#5559FF"/>
<path d="M24.2805 77.0881C23.9469 76.5322 23.8551 75.8685 24.022 75.0802L25.123 75.5034C25.0562 75.968 25.1397 76.358 25.3565 76.6899C25.5817 77.0218 25.9571 77.279 26.4575 77.4698C27.0831 77.7104 27.6586 77.6938 28.1841 77.4034C28.7596 77.113 29.1934 76.5654 29.5103 75.744C29.8106 74.9641 29.869 74.292 29.6688 73.7361C29.4603 73.147 28.9431 72.6907 28.1341 72.3837C27.8171 72.2592 27.5001 72.1846 27.1915 72.1514C26.8996 72.1265 26.6243 72.1431 26.3574 72.1846L25.832 73.5536L27.6002 74.2256L27.2416 75.1549L24.3806 74.068L25.4566 71.2553C25.9237 71.1142 26.3991 71.0562 26.9163 71.081C27.4584 71.1142 28.0256 71.247 28.6178 71.471C29.6855 71.8776 30.3778 72.5247 30.7114 73.4208C31.0284 74.2505 30.9867 75.1632 30.603 76.1506C30.2193 77.1462 29.6354 77.8598 28.8347 78.2912C27.9923 78.7558 27.0748 78.7973 26.0822 78.4157C25.2231 78.0921 24.6225 77.644 24.2722 77.0798L24.2805 77.0881Z" fill="#5559FF"/>
<path d="M16.6319 73.2217L17.1741 72.3837L20.5355 74.516L21.6031 72.8566L18.4502 70.857L18.9924 70.019L22.1453 72.0186L23.3047 70.2016L19.8015 67.9779L20.3436 67.1399L24.8311 69.9858L20.9859 75.9763L16.6402 73.2217H16.6319Z" fill="#5559FF"/>
<path d="M10.8766 68.1605L11.5605 67.4303L13.2788 69.0151L17.4659 64.5347L18.3251 65.3312L14.1379 69.8116L15.8561 71.3963L15.1722 72.1265L10.8849 68.1605H10.8766Z" fill="#5559FF"/>
<path d="M6.77289 62.8006L12.6783 58.8014L13.3372 59.7638L7.43182 63.763L6.77289 62.8006Z" fill="#5559FF"/>
<path d="M4.96286 59.8634L8.04902 54.462L8.03234 54.4288L3.39476 56.669L2.87762 55.6153L9.30017 52.5039L9.80062 53.5244L6.66442 58.9922L6.6811 59.0254L11.3771 56.752L11.8859 57.7974L5.46332 60.9088L4.95452 59.8634H4.96286Z" fill="#5559FF"/>
<path d="M0.150126 44.1487L1.1427 43.9911L1.5097 46.2894L7.58192 45.3269L7.76542 46.4802L1.6932 47.4427L2.06021 49.741L1.06763 49.8986L0.141785 44.1404L0.150126 44.1487Z" fill="#5559FF"/>
<path d="M1.17611 36.4076C1.86841 35.8351 2.77757 35.5779 3.87858 35.6193C4.97959 35.6608 5.84705 36.001 6.4893 36.6233C7.16492 37.2788 7.47353 38.15 7.43183 39.2369C7.39012 40.3321 6.98976 41.1701 6.26409 41.7592C5.55511 42.3317 4.66263 42.5806 3.58664 42.5308C2.49398 42.4893 1.62652 42.1574 0.975923 41.5352C0.283623 40.888 -0.0333334 40.0168 0.0167124 38.9216C0.0584172 37.8347 0.450442 36.9967 1.18445 36.3993L1.17611 36.4076ZM1.70993 40.7137C2.17702 41.1203 2.80259 41.336 3.62835 41.3692C4.43742 41.4024 5.08802 41.2448 5.58013 40.8714C6.08893 40.4897 6.36418 39.9255 6.38921 39.1871C6.42257 38.4486 6.20571 37.8761 5.74695 37.453C5.29654 37.0464 4.65429 36.8224 3.81185 36.7809C2.96941 36.7395 2.30214 36.9137 1.81002 37.2871C1.30956 37.6687 1.05933 38.2246 1.02597 38.9631C0.992605 39.7015 1.21781 40.274 1.70159 40.7055L1.70993 40.7137Z" fill="#5559FF"/>
<path d="M1.00924 31.9852L5.31317 33.1219C5.91372 33.2796 6.38082 33.263 6.74782 33.0555C7.09814 32.8564 7.36505 32.4582 7.52353 31.8525C7.68201 31.2551 7.65699 30.7739 7.44846 30.4254C7.2316 30.0769 6.83123 29.8197 6.23068 29.662L1.92674 28.5253L2.22702 27.3969L6.51427 28.5336C7.4151 28.7743 8.03233 29.2057 8.37431 29.828C8.70795 30.4503 8.74965 31.2136 8.50776 32.118C8.26588 33.0307 7.84049 33.6695 7.25662 34.0346C6.63939 34.4163 5.88036 34.4826 4.98788 34.2503L0.700623 33.1136L1.0009 31.9852H1.00924Z" fill="#5559FF"/>
<path d="M6.03883 20.5353C6.64772 20.2615 7.30666 20.2532 7.99896 20.4855L7.48182 21.4977C7.00639 21.3899 6.60602 21.4313 6.2557 21.6222C5.91372 21.8047 5.63847 22.12 5.40492 22.568C5.06294 23.2318 5.02958 23.8458 5.32151 24.4183C5.57174 24.941 6.06386 25.3808 6.79786 25.7541C7.54855 26.1358 8.19914 26.2768 8.75799 26.1856C9.3502 26.0777 9.84231 25.6794 10.201 24.9825C10.4345 24.5345 10.5096 24.0947 10.4429 23.7047C10.3595 23.2816 10.1009 22.8833 9.68384 22.51L10.201 21.4977C10.8766 22.0204 11.2853 22.6427 11.4354 23.3812C11.5772 24.0698 11.4688 24.7502 11.1185 25.4388C10.5763 26.4926 9.83397 27.1065 8.90813 27.2891C8.10739 27.4467 7.22325 27.2808 6.26404 26.7913C5.32151 26.31 4.66258 25.6877 4.3206 24.9161C3.92023 24.0366 3.98696 23.0991 4.5041 22.0868C4.88778 21.3401 5.40492 20.8257 6.03883 20.5436V20.5353Z" fill="#5559FF"/>
<path d="M8.12412 16.5278L10.4262 18.4029L12.72 15.6151L10.4179 13.74L11.1602 12.8356L16.6819 17.3409L15.9396 18.2453L13.4957 16.254L11.2019 19.0418L13.6458 21.0331L12.9035 21.9375L7.38177 17.4322L8.12412 16.5361V16.5278Z" fill="#5559FF"/>
<path d="M26.4575 5.33502C26.8996 5.50096 27.2249 5.80795 27.4167 6.2477C27.6086 6.68744 27.6169 7.12719 27.4418 7.57523C27.2666 8.02327 26.958 8.33856 26.5159 8.52939C26.0739 8.72023 25.6318 8.72852 25.1897 8.55429C24.7393 8.38005 24.4223 8.07306 24.2305 7.63331C24.0387 7.19357 24.0303 6.75382 24.2055 6.31408C24.3723 5.87433 24.6809 5.55074 25.123 5.35991C25.5651 5.16908 26.0071 5.16078 26.4575 5.33502Z" fill="#5559FF"/>
</g>
<defs>
<clipPath id="clip0_422_18606">
<rect width="82" height="82" fill="white"/>
</clipPath>
</defs>
</svg>
