<svg width="80" height="80" viewBox="0 0 80 80" fill="none" xmlns="http://www.w3.org/2000/svg">
<g clip-path="url(#clip0_411_18358)">
<path d="M59.6066 25.8295C59.738 25.817 61.1312 26.7494 61.5675 26.906C63.9598 27.7687 66.124 27.1397 68.1692 25.8344C72.6959 28.3853 73.9825 34.6679 70.7151 38.7651C70.3854 39.1803 68.3477 41.4925 68.1171 40.2345L68.0328 33.3055C67.9089 33.1016 64.1655 30.9212 63.9325 30.8814C63.4342 30.7994 60.2586 32.9126 59.5769 33.303C59.2843 34.2278 59.7603 40.1127 59.3463 40.411C58.9323 40.7094 58.1118 39.9685 57.7895 39.6652C54.6461 36.6991 54.3883 31.3488 57.0607 28.0074C57.4251 27.5524 59.1158 25.8742 59.6041 25.8295H59.6066Z" fill="url(#paint0_linear_411_18358)"/>
<path d="M12.4977 54.6719L12.0887 44.2373C12.7778 44.7445 14.4537 45.0652 15.0238 45.5326C15.4725 45.9006 15.7031 47.3948 16.2386 48.066C16.6228 48.5509 17.3764 48.9859 17.9838 49.0879C19.0027 49.2594 23.0683 49.2619 24.0524 49.0531C24.692 48.9188 25.3688 48.3321 25.7456 47.8149C25.9762 47.4967 25.9315 47.002 26.3207 46.8428L28.2742 54.6719H12.4977Z" fill="#D5D7D1"/>
<path d="M34.9428 59.8904H7.04883C7.01412 59.8904 6.86538 60.1341 6.80589 60.0545C6.57286 58.4708 7.43556 57.4266 8.99238 57.2725L32.8926 57.2948C34.1793 57.5161 35.1213 58.5354 34.9403 59.8904H34.9428Z" fill="url(#paint1_linear_411_18358)"/>
<path d="M48.0767 1.05205C53.7834 0.276358 55.4542 8.40125 50.2285 10.0595C43.7929 12.1057 41.7527 1.91228 48.0767 1.05205Z" fill="url(#paint2_linear_411_18358)"/>
<path d="M37.868 18.2963C38.8001 16.6306 39.4248 15.2607 38.1159 13.5651C37.0797 12.2201 35.2031 10.7607 33.966 9.57475L41.6064 4.76147C41.2618 7.77226 42.7567 10.3778 45.1836 12.0187L37.868 18.2963Z" fill="#D5D7D1"/>
<path d="M62.4277 14.3831C60.4841 14.8704 59.0612 16.0439 58.0646 17.7569C57.9109 18.0229 57.777 18.9204 57.4696 18.7861L50.8804 12.6726C53.3148 11.7303 54.8642 10.1168 55.8409 7.7002L62.4277 14.3831Z" fill="#D5D7D1"/>
<path d="M63.3623 16.8742C68.5608 16.2378 69.2971 23.9972 64.6068 24.6461C59.0612 25.4143 58.3844 17.4834 63.3623 16.8742Z" fill="url(#paint3_linear_411_18358)"/>
<path d="M72.4281 62.501H7.53966C-1.48399 64.2214 -1.02537 76.7817 8.02803 77.9925L71.7836 77.9999C73.4742 77.8657 75.4674 76.998 76.6796 75.817C81.246 71.3717 78.6703 63.4184 72.4256 62.501H72.4281ZM57.5019 64.8181C58.1836 64.664 63.5805 64.664 64.2622 64.8181C65.5414 65.1065 65.5315 67.1626 64.1258 67.3839C63.2086 67.5281 58.3299 67.5529 57.4722 67.3888C56.2202 67.1502 56.0517 65.1438 57.5019 64.8181ZM36.8219 64.7933C38.0688 64.6192 41.7155 64.6366 42.9947 64.7783C43.2649 64.8082 43.8226 64.9747 44.0036 65.1538C44.6878 65.8424 44.2986 67.2223 43.307 67.3814C42.2559 67.548 37.7119 67.548 36.6607 67.3814C35.3196 67.1701 35.1907 65.022 36.8244 64.7933H36.8219ZM15.7031 64.8181C16.3898 64.664 21.7792 64.664 22.4659 64.8181C23.8144 65.1214 23.8343 66.9687 22.4956 67.3888C20.5397 67.1303 17.5252 67.7667 15.7031 67.3565C14.4537 67.0781 14.4561 65.0966 15.7031 64.8156V64.8181ZM8.8114 74.3427C3.64264 74.4173 3.21872 66.7971 8.06769 66.1308C13.9281 65.3253 14.4289 74.2632 8.8114 74.3427ZM21.9924 75.6927C20.7033 75.8494 17.6243 75.8494 16.3377 75.6927C14.7462 75.4988 14.1438 74.1115 15.5395 73.1344C17.659 73.296 20.4529 72.7938 22.4882 73.1096C23.9409 73.3358 23.9582 75.4541 21.9924 75.6903V75.6927ZM30.721 74.1687C24.9746 75.7002 23.4451 66.9861 28.8816 66.1283C34.0974 65.3054 35.446 72.9082 30.721 74.1687ZM42.8112 75.6927C41.5246 75.8494 38.4432 75.8494 37.1566 75.6927C35.565 75.4988 34.9626 74.1115 36.3583 73.1344L43.4756 73.1046C45.0374 73.9325 44.4746 75.4889 42.8112 75.6903V75.6927ZM50.4466 74.3427C45.4439 74.4148 44.8242 66.8966 49.6979 66.1283C55.4716 65.2184 56.2624 74.2607 50.4466 74.3427ZM63.6276 75.6927C62.3385 75.8494 59.262 75.8494 57.9729 75.6927C56.0839 75.464 56.0095 73.4328 57.3383 73.1369C59.2075 72.7217 62.2864 73.3681 64.2919 73.1071C65.8537 73.935 65.291 75.4914 63.6276 75.6927ZM71.263 74.3427C66.2479 74.4148 65.648 66.7872 70.6804 66.1308C76.4094 65.3825 76.9895 74.2607 71.263 74.3427Z" fill="#D5D7D1"/>
<path d="M40.1239 24.7628C39.9678 24.3004 37.3276 23.8131 36.9805 23.3482C36.7004 22.9753 36.4054 21.496 36.1575 20.9117C35.9592 20.4443 35.0122 18.8979 34.975 18.6791C34.8411 17.9034 36.6905 16.1283 35.9889 15.0468C35.7633 14.6987 32.9224 11.9092 32.6819 11.8545C32.1068 11.7252 30.2054 13.1274 29.5038 13.0802C29.1741 13.0578 28.242 12.3816 27.7784 12.1901C27.119 11.9167 25.2176 11.4343 24.8631 11.2006C24.3896 10.8874 23.8987 8.63488 23.5294 8.05311L18.2069 8.04565C17.9491 8.65726 17.4012 10.8202 16.9773 11.1335C16.7145 11.3299 14.8825 11.8545 14.3371 12.0733C13.8314 12.2772 12.7778 12.9957 12.3762 13.0504C11.6325 13.1523 9.50552 11.6382 9.08409 11.8495C8.6577 12.486 5.61841 15.0393 5.53413 15.467C5.43249 15.9841 6.78851 17.9382 6.79099 18.5449C6.79099 18.7811 5.78203 20.6034 5.58619 21.0758C5.42257 21.4711 4.90693 23.3954 4.81769 23.4849C4.62433 23.6789 2.08828 24.2954 1.80072 24.5366C1.40407 24.8698 1.62471 28.9322 1.67677 29.7203C1.94202 30.2524 4.42353 30.6601 4.81521 31.0579C4.95156 31.1971 5.40026 33.022 5.58619 33.4645C5.87127 34.1458 6.88024 35.6524 6.73645 36.2391C6.5778 36.8781 5.34324 38.6433 5.57875 39.1704C5.67791 39.3916 8.80148 42.5143 9.03699 42.5764C9.81788 42.7878 11.6325 41.3483 12.2548 41.3508C12.3614 41.3508 13.7719 42.1985 14.1289 42.3502C14.6768 42.5839 16.8459 43.1731 17.0145 43.29C17.2822 43.4765 17.8772 45.801 18.2044 46.256C18.3308 46.4325 18.3755 46.4748 18.5961 46.5146C19.967 46.7657 22.0767 46.3455 23.5343 46.4922C23.7624 46.0845 24.5879 43.3845 24.7292 43.285C24.8383 43.2079 26.8041 42.7132 27.2925 42.5118C27.709 42.3403 29.3501 41.3731 29.4939 41.3582C30.1682 41.2936 32.0721 42.8673 32.8232 42.5193C33.0438 42.4173 36.16 39.2947 36.2195 39.0585C36.3757 38.4444 34.923 36.4057 34.975 35.8538C34.9924 35.6847 35.8228 34.3546 35.9939 33.9469C36.212 33.4272 36.8244 31.1623 36.931 31.0529C37.2037 30.777 40.0719 30.0957 40.1512 29.7651L40.1239 24.7579V24.7628ZM22.7534 36.167C10.2963 38.6607 7.64378 19.3927 19.9447 18.1819C31.43 17.0531 33.7157 33.9717 22.7534 36.167Z" fill="url(#paint4_linear_411_18358)"/>
</g>
<defs>
<linearGradient id="paint0_linear_411_18358" x1="55.2285" y1="26.4204" x2="68.4346" y2="43.2375" gradientUnits="userSpaceOnUse">
<stop stop-color="#21DEFF"/>
<stop offset="0.501932" stop-color="#A099FF"/>
<stop offset="1" stop-color="#E17DFF"/>
</linearGradient>
<linearGradient id="paint1_linear_411_18358" x1="6.76822" y1="57.3844" x2="7.23438" y2="62.4902" gradientUnits="userSpaceOnUse">
<stop stop-color="#21DEFF"/>
<stop offset="0.501932" stop-color="#A099FF"/>
<stop offset="1" stop-color="#E17DFF"/>
</linearGradient>
<linearGradient id="paint2_linear_411_18358" x1="44.2407" y1="1.37324" x2="52.808" y2="10.4906" gradientUnits="userSpaceOnUse">
<stop stop-color="#21DEFF"/>
<stop offset="0.501932" stop-color="#A099FF"/>
<stop offset="1" stop-color="#E17DFF"/>
</linearGradient>
<linearGradient id="paint3_linear_411_18358" x1="60.0054" y1="17.1516" x2="67.2221" y2="24.8594" gradientUnits="userSpaceOnUse">
<stop stop-color="#21DEFF"/>
<stop offset="0.501932" stop-color="#A099FF"/>
<stop offset="1" stop-color="#E17DFF"/>
</linearGradient>
<linearGradient id="paint4_linear_411_18358" x1="1.56863" y1="9.58779" x2="36.9098" y2="48.034" gradientUnits="userSpaceOnUse">
<stop stop-color="#21DEFF"/>
<stop offset="0.501932" stop-color="#A099FF"/>
<stop offset="1" stop-color="#E17DFF"/>
</linearGradient>
<clipPath id="clip0_411_18358">
<rect width="78" height="77" fill="white" transform="translate(1 1)"/>
</clipPath>
</defs>
</svg>
