<svg width="56" height="56" viewBox="0 0 56 56" fill="none" xmlns="http://www.w3.org/2000/svg">
<rect width="56" height="56" rx="28" fill="#909090" fill-opacity="0.2"/>
<g clip-path="url(#clip0_422_18629)">
<path d="M44.755 20.755C42.825 11.765 35.135 7.625 27.995 7.625C20.865 7.625 13.185 11.765 11.245 20.755C9.99501 21.655 9.19501 22.985 9.19501 24.485V32.185C9.19501 34.725 11.465 36.815 14.375 37.095V19.585C14.115 19.615 13.865 19.665 13.605 19.725C15.815 12.825 22.115 9.625 27.995 9.625C33.875 9.625 40.175 12.825 42.385 19.715C42.135 19.665 41.885 19.605 41.615 19.575V37.085C44.535 36.805 46.795 34.715 46.795 32.175V24.475C46.795 22.975 45.995 21.645 44.745 20.745L44.755 20.755Z" fill="#1E1E1E"/>
<path d="M43.615 26.685C43.615 38.665 36.645 48.375 28.035 48.375C19.425 48.375 12.465 38.665 12.465 26.685C12.465 14.705 19.435 11.795 28.045 11.795C36.655 11.795 43.625 14.705 43.625 26.685H43.615Z" fill="url(#paint0_linear_422_18629)"/>
<path d="M28.045 17.715C20.315 17.715 14.055 19.455 14.055 26.625C14.055 30.095 15.525 33.245 17.915 35.565C19.765 37.355 22.575 37.565 24.755 36.225C25.765 35.605 26.875 35.265 28.035 35.265C29.195 35.265 30.305 35.605 31.315 36.225C33.495 37.565 36.315 37.355 38.155 35.565C40.545 33.235 42.015 30.095 42.015 26.625C42.015 19.455 35.755 17.715 28.025 17.715H28.045Z" fill="url(#paint1_linear_422_18629)"/>
<path d="M45.015 35.015L43.205 35.155C43.205 35.155 43.415 38.385 41.055 40.595C39.175 42.365 36.165 43.075 32.135 42.745C31.885 42.205 31.385 41.805 30.775 41.715L28.995 41.445C28.025 41.295 27.125 41.985 26.995 42.985C26.865 43.985 27.545 44.905 28.525 45.055L30.305 45.325C30.995 45.425 31.645 45.105 32.015 44.555C34.185 44.735 36.115 44.635 37.775 44.245C39.615 43.815 41.135 43.035 42.325 41.905C45.315 39.085 45.035 35.185 45.025 35.015H45.015Z" fill="#1E1E1E"/>
</g>
<defs>
<linearGradient id="paint0_linear_422_18629" x1="28.045" y1="48.375" x2="28.045" y2="11.805" gradientUnits="userSpaceOnUse">
<stop stop-color="#B8B8B8"/>
<stop offset="0.13" stop-color="#D2D2D2"/>
<stop offset="0.28" stop-color="#E5E5E5"/>
<stop offset="0.45" stop-color="#F4F4F4"/>
<stop offset="0.65" stop-color="#FCFCFC"/>
<stop offset="1" stop-color="white"/>
</linearGradient>
<linearGradient id="paint1_linear_422_18629" x1="15.105" y1="23.885" x2="41.905" y2="31.925" gradientUnits="userSpaceOnUse">
<stop stop-color="#25DBFF"/>
<stop offset="1" stop-color="#DF7FFF"/>
</linearGradient>
<clipPath id="clip0_422_18629">
<rect width="37.61" height="40.75" fill="white" transform="translate(9.19501 7.625)"/>
</clipPath>
</defs>
</svg>
