<svg width="24" height="24" viewBox="0 0 24 24" fill="none" xmlns="http://www.w3.org/2000/svg">
<path d="M12 21.9102C10.6393 21.9102 9.35677 21.6497 8.15234 21.1289C6.95443 20.6081 5.89648 19.8887 4.97852 18.9707C4.06055 18.0527 3.34115 16.9948 2.82031 15.7969C2.29948 14.5924 2.03906 13.3099 2.03906 11.9492C2.03906 10.5885 2.29948 9.30924 2.82031 8.11133C3.34115 6.9069 4.05729 5.8457 4.96875 4.92773C5.88672 4.00977 6.94466 3.29036 8.14258 2.76953C9.34701 2.2487 10.6296 1.98828 11.9902 1.98828C13.3509 1.98828 14.6335 2.2487 15.8379 2.76953C17.0423 3.29036 18.1035 4.00977 19.0215 4.92773C19.9395 5.8457 20.6589 6.9069 21.1797 8.11133C21.7005 9.30924 21.9609 10.5885 21.9609 11.9492C21.9609 13.3099 21.7005 14.5924 21.1797 15.7969C20.6589 16.9948 19.9395 18.0527 19.0215 18.9707C18.1035 19.8887 17.0423 20.6081 15.8379 21.1289C14.64 21.6497 13.3607 21.9102 12 21.9102ZM12 20.25C13.1523 20.25 14.2298 20.0352 15.2324 19.6055C16.235 19.1758 17.1172 18.5833 17.8789 17.8281C18.6406 17.0664 19.2331 16.1842 19.6562 15.1816C20.0859 14.179 20.3008 13.1016 20.3008 11.9492C20.3008 10.7969 20.0859 9.7194 19.6562 8.7168C19.2266 7.71419 18.6309 6.83203 17.8691 6.07031C17.1139 5.30859 16.2318 4.71615 15.2227 4.29297C14.2201 3.86328 13.1426 3.64844 11.9902 3.64844C10.8379 3.64844 9.76042 3.86328 8.75781 4.29297C7.75521 4.71615 6.8763 5.30859 6.12109 6.07031C5.36589 6.83203 4.77344 7.71419 4.34375 8.7168C3.92057 9.7194 3.70898 10.7969 3.70898 11.9492C3.70898 13.1016 3.92057 14.179 4.34375 15.1816C4.77344 16.1842 5.36589 17.0664 6.12109 17.8281C6.88281 18.5833 7.76497 19.1758 8.76758 19.6055C9.77018 20.0352 10.8477 20.25 12 20.25ZM18.6797 18.3848C18.0872 18.9642 17.3906 19.459 16.5898 19.8691C15.7956 20.2793 14.9915 20.5918 14.1777 20.8066C13.3639 21.028 12.638 21.1387 12 21.1387C11.3685 21.1387 10.6426 21.028 9.82227 20.8066C9.00846 20.5918 8.20117 20.2793 7.40039 19.8691C6.59961 19.459 5.90625 18.9642 5.32031 18.3848L5.34961 18.2676C5.51237 17.7923 5.89323 17.3236 6.49219 16.8613C7.09115 16.3991 7.85938 16.0182 8.79688 15.7188C9.74089 15.4193 10.8086 15.2695 12 15.2695C13.1979 15.2695 14.2656 15.4193 15.2031 15.7188C16.1471 16.0182 16.9154 16.3991 17.5078 16.8613C18.1068 17.3236 18.4876 17.7956 18.6504 18.2773L18.6797 18.3848ZM12 13.6094C11.375 13.6029 10.8086 13.4401 10.3008 13.1211C9.79948 12.7956 9.39909 12.3561 9.09961 11.8027C8.80664 11.2493 8.6569 10.6243 8.65039 9.92773C8.64388 9.27018 8.79036 8.66797 9.08984 8.12109C9.38932 7.57422 9.79297 7.13802 10.3008 6.8125C10.8086 6.48047 11.375 6.31445 12 6.31445C12.625 6.31445 13.1882 6.48047 13.6895 6.8125C14.1973 7.13802 14.6009 7.57422 14.9004 8.12109C15.1999 8.66797 15.3496 9.27018 15.3496 9.92773C15.3496 10.6243 15.1999 11.2526 14.9004 11.8125C14.6074 12.3724 14.207 12.8151 13.6992 13.1406C13.1914 13.4596 12.625 13.6159 12 13.6094Z" fill="black"/>
</svg>
