<svg width="148" height="18" viewBox="0 0 148 18" fill="none" xmlns="http://www.w3.org/2000/svg">
<path d="M8.66656 3.70815L3.27516 17.691H0L5.97086 2.24034C6.6007 0.618025 7.7596 0 9.54834 0C11.3119 0 12.4708 0.618025 13.0754 2.24034L18.8195 17.691H15.5192L10.3545 3.70815C10.2034 3.29614 9.92624 3.11588 9.52314 3.11588C9.12005 3.11588 8.84292 3.29614 8.66656 3.70815Z" fill="black"/>
<path d="M28.7487 0.309013H31.7216V11.6652C31.7216 13.3391 32.5278 14.6524 35.1983 14.6524H41.799V17.691H35.0219C30.5123 17.691 28.7487 15.1674 28.7487 11.691V0.309013Z" fill="black"/>
<path d="M50.327 0.309013H63.2512V3.34764H58.2881V17.691H55.2901V3.34764H50.327V0.309013Z" fill="black"/>
<path d="M74.5704 0.309013H83.7912C87.6206 0.309013 89.2582 2.72961 89.2582 5.51073C89.2582 7.67382 88.2505 9.99142 85.6555 10.7382L89.6109 17.691H86.3106L82.4308 10.97H77.9967C77.7196 10.97 77.5684 11.0987 77.5684 11.4077V17.691H74.5956V10.8155C74.5956 8.85837 75.4018 8.06009 77.2661 8.06009H83.892C85.58 8.06009 86.2602 6.87554 86.2602 5.63949C86.2602 4.40343 85.5296 3.34764 83.892 3.34764H74.5704V0.309013Z" fill="black"/>
<path d="M107.857 0.309013H110.174C115.112 0.309013 117.858 3.19313 117.858 9.03863C117.858 14.8584 115.137 17.691 110.174 17.691H107.857C102.893 17.691 100.173 14.8584 100.173 9.03863C100.173 3.19313 102.919 0.309013 107.857 0.309013ZM110.174 3.34764H107.857C104.581 3.34764 103.145 5.04721 103.145 9.03863C103.145 13.0043 104.556 14.6524 107.857 14.6524H110.174C113.449 14.6524 114.86 13.0043 114.86 9.01288C114.86 5.04721 113.449 3.34764 110.174 3.34764Z" fill="black"/>
<path d="M132.884 3.93991V17.691H129.911V3.78541C129.911 1.51931 131.171 0 133.816 0C136.184 0 137.242 1.23605 137.948 3.21888L142.911 14.3176C143.112 14.7296 143.44 15.0386 143.994 15.0386C144.624 15.0386 145.002 14.6524 145.002 14.0601V0.309013H148V14.1888C148 16.4807 146.715 18 144.095 18C141.727 18 140.644 16.7639 139.938 14.7811L134.975 3.6824C134.748 3.16738 134.446 2.93562 133.917 2.93562C133.237 2.93562 132.884 3.32189 132.884 3.93991Z" fill="black"/>
</svg>
