<svg width="80" height="80" viewBox="0 0 80 80" fill="none" xmlns="http://www.w3.org/2000/svg">
<g clip-path="url(#clip0_412_18468)">
<path d="M46.6558 53.0801V58.211H56.9268V53.0801H62.0598V71.0435H41.5202V53.0801H46.6558Z" fill="url(#paint0_linear_412_18468)"/>
<path d="M13.2786 8.16895V10.7344H7.42177C6.92821 10.7344 5.46779 12.2196 5.57156 12.8951L5.65002 67.9999C5.81454 68.6249 6.97124 69.7583 7.58122 69.7583H38.9512V72.3238H6.29797C4.98942 72.3238 2.90635 70.2972 3.00253 68.8829L3.01012 11.4555C2.9595 10.2487 4.87046 8.16895 5.97906 8.16895H13.2812H13.2786Z" fill="#D5D7D1"/>
<path d="M77.4664 71.0436H64.6289V58.2111H74.176C74.5531 58.7651 77.4664 62.1934 77.4664 62.4616V71.0436Z" fill="#D5D7D1"/>
<path d="M16.7639 5.63623L35.595 5.67165C36.0127 5.80827 36.3138 6.40284 36.3771 6.81524C36.486 7.53378 36.4936 11.7691 36.3164 12.346C36.1721 12.8166 35.5343 13.3074 35.0281 13.3023C29.3484 12.9 22.9625 13.8235 17.3663 13.3049C16.6222 13.2365 15.9894 13.0949 15.8578 12.2473C15.6907 11.1695 15.7363 8.10304 15.8401 6.95692C15.9008 6.2814 16.0704 5.85129 16.7639 5.63623Z" fill="#D5D7D1"/>
<path d="M49.2248 50.5121H46.6583V12.9002C46.6583 12.2221 45.3801 10.7344 44.6537 10.7344H38.9563V8.16895H46.0964C46.1647 8.16895 47.2227 8.594 47.3569 8.67243C48.0276 9.06965 49.2248 10.6864 49.2248 11.4555V50.5121Z" fill="#D5D7D1"/>
<path d="M66.2335 73.609C65.6286 74.3984 64.9781 75.1448 64.7681 76.1543H54.3021C53.7934 75.2409 53.358 74.3503 52.5962 73.609H66.2361H66.2335Z" fill="#D5D7D1"/>
<path d="M48.5389 74.9297C51.5787 74.2997 52.9556 78.2922 50.5156 79.6306C48.4832 80.7463 46.3115 79.16 46.6684 76.9057C46.7899 76.134 47.7796 75.0866 48.5389 74.9297Z" fill="#D5D7D1"/>
<path d="M69.0785 74.9297C72.1183 74.2997 73.4952 78.2922 71.0552 79.6306C69.0228 80.7463 66.8511 79.16 67.208 76.9057C67.3295 76.134 68.3191 75.0866 69.0785 74.9297Z" fill="#D5D7D1"/>
<path d="M54.3603 53.0801H49.2248V55.6456H54.3603V53.0801Z" fill="#D5D7D1"/>
<path d="M77.4664 73.609C77.6866 75.4256 77.0665 76.4326 75.1302 76.1846C74.4291 76.0935 74.5683 75.5648 74.2266 75.0031C73.9103 74.4844 73.5104 74.0745 73.1332 73.609H77.4664Z" fill="#D5D7D1"/>
<path d="M45.694 73.609C45.4054 74.0745 44.9751 74.4667 44.6993 74.9398C44.4537 75.3623 44.3955 76.1416 44.0159 76.1871C41.8898 76.4452 41.2697 75.6938 41.5228 73.609H45.694Z" fill="#D5D7D1"/>
<path d="M38.6323 13.2999C38.5994 13.2999 38.5209 13.7148 38.3843 13.9298C37.6907 14.9975 36.7644 15.6528 35.4862 15.8476C29.5407 15.544 23.0916 16.3132 17.2043 15.8729C15.8249 15.7692 14.7618 15.291 13.9494 14.155C13.7216 13.8362 13.6381 13.3277 13.6026 13.2999C13.3951 13.1227 8.85182 13.4339 8.14565 13.2999V67.1928H38.9563V50.512H44.0918V13.2999H38.6348H38.6323ZM24.8329 23.5669H36.3873V26.1323H24.8329V23.5669ZM24.8329 38.9648H36.3873V41.5303H24.8329V38.9648ZM11.5955 25.1734C11.9524 25.386 12.899 26.7927 13.2837 26.5397L19.9379 17.6339C20.1986 17.9704 22.0083 18.9925 21.9374 19.3012L13.3596 30.6207L9.75288 27.0153L11.5955 25.1734ZM11.5955 40.5714C11.9524 40.7839 12.899 42.1907 13.2837 41.9377L19.9379 33.0318C20.1986 33.3683 22.0083 34.3905 21.9374 34.6991L13.3596 46.0187L9.75288 42.4133L11.5955 40.5714ZM24.8329 63.3445H11.9954V53.0801H24.8329V63.3445ZM36.3873 64.6273H28.6852V62.0618H36.3873V64.6273ZM36.3873 59.4963H28.6852V56.9308H36.3873V59.4963ZM36.3873 54.3628H28.6852V51.7973H36.3873V54.3628ZM41.5202 46.6638H24.8329V44.0983H41.5202V46.6638ZM41.5202 41.5303H38.9537V38.9648H41.5202V41.5303ZM41.5202 36.3968H24.8329V33.8313H41.5202V36.3968ZM41.5202 31.2658H24.8329V28.7004H41.5202V31.2658ZM41.5202 26.1323H38.9537V23.5669H41.5202V26.1323ZM41.5202 20.9988H24.8329V18.4334H41.5202V20.9988Z" fill="#D5D7D1"/>
<path d="M75.9452 5.75787C68.8102 -0.294051 58.0481 4.2373 56.9268 13.3H51.7913V15.8655H56.8458C57.1977 16.1235 57.0534 16.6017 57.1597 16.9964C58.4632 21.8794 62.0117 25.4873 67.1979 25.9706V55.6432H69.7644V25.9706C79.6861 24.9509 83.6574 12.2981 75.9452 5.75787ZM65.8311 20.1944L62.3838 16.7485L64.2264 14.9066C64.6238 15.1571 65.6514 16.6523 66.0716 16.4373L72.5941 9.94259L74.4139 11.615L65.8311 20.1944Z" fill="url(#paint1_linear_412_18468)"/>
</g>
<defs>
<linearGradient id="paint0_linear_412_18468" x1="41.5202" y1="53.7987" x2="57.6635" y2="73.8622" gradientUnits="userSpaceOnUse">
<stop stop-color="#21DEFF"/>
<stop offset="0.501932" stop-color="#A099FF"/>
<stop offset="1" stop-color="#E17DFF"/>
</linearGradient>
<linearGradient id="paint1_linear_412_18468" x1="51.7913" y1="5.10586" x2="93.9172" y2="29.6415" gradientUnits="userSpaceOnUse">
<stop stop-color="#21DEFF"/>
<stop offset="0.501932" stop-color="#A099FF"/>
<stop offset="1" stop-color="#E17DFF"/>
</linearGradient>
<clipPath id="clip0_412_18468">
<rect width="77" height="77" fill="white" transform="translate(3 3)"/>
</clipPath>
</defs>
</svg>
