<svg width="80" height="80" viewBox="0 0 80 80" fill="none" xmlns="http://www.w3.org/2000/svg">
<g clip-path="url(#clip0_411_18360)">
<path d="M51.3934 30.9481V70.5179H25.4983C25.0422 69.2822 24.7785 68.0956 23.9453 67.0242C19.947 61.8758 11.5487 64.0823 10.8757 70.5179H1.89069V30.9481C1.89069 29.2908 3.24152 27.9448 4.91034 27.9448H48.3737C50.0401 27.9448 51.3934 29.2883 51.3934 30.9481ZM33.4233 45.9817C33.3518 43.8487 32.743 41.9315 31.3823 40.2914C30.766 39.551 28.3799 37.6191 28.227 36.9252C27.8671 35.3096 30.3494 34.5864 29.5853 33.3041C29.2032 32.6618 27.7981 33.2502 27.2534 33.4243C21.5887 35.2361 18.0194 40.311 19.5329 46.2955C18.2067 47.0972 18.1007 45.2241 17.4623 45.0329C16.9693 44.8858 16.3875 44.9887 16.1854 45.484C15.8575 46.2832 15.5174 48.2642 15.4557 49.1492C14.2947 65.4012 38.7774 65.5214 37.8431 49.9534C37.7815 48.9138 36.936 44.6847 36.2803 44.0351C35.0478 42.8117 34.4118 45.6679 33.4282 45.9792L33.4233 45.9817Z" fill="#D5D7D1"/>
<path d="M59.3998 70.5178H53.3555V35.7435H70.591C71.1629 35.7435 72.3313 36.8149 72.4989 37.4205C74.4685 43.5177 77.8382 49.7278 79.6623 55.8054C79.8669 56.4821 80.0961 57.1808 79.9581 57.8967L79.7387 58.1664H76.9606C76.9335 58.1664 76.6722 58.4165 76.6353 58.4949C76.4923 58.7965 76.4578 64.1313 76.544 64.7564C76.5736 64.9722 76.7536 65.4797 76.9606 65.4797H79.7387L79.9828 65.7224V68.1593C79.9828 68.456 79.4676 69.4318 79.2383 69.6916C78.028 71.0523 75.6813 70.3658 74.042 70.4933L73.8498 70.3585C72.4792 62.0817 60.5016 62.1552 59.3998 70.5129V70.5178ZM72.4694 51.9931L68.1408 41.1053H58.5839V51.9931H72.4718H72.4694ZM59.1853 55.4377C58.4458 55.6583 58.4458 56.943 59.1853 57.1612C59.5156 57.2593 62.5106 57.2666 62.9075 57.1882C63.7579 57.0215 63.7407 55.6461 63.0431 55.4352C62.7325 55.3421 59.4984 55.3421 59.1853 55.4352V55.4377Z" fill="#D5D7D1"/>
<path d="M48.7805 7.79706V21.6097H52.621C53.5404 21.6097 53.3851 23.397 52.7837 23.397H35.7109V26.16H33.7512V23.397H19.5378V26.16H17.7408V23.397H0.502902C-0.11089 23.397 -0.192236 21.6097 0.665594 21.6097H4.50611V7.79706H0.665594C0.0370118 7.79706 -0.512689 6.18142 0.82089 6H52.3005C53.9102 6.15936 53.2693 7.79461 52.6185 7.79461H48.778L48.7805 7.79706ZM11.5314 7.79706H6.30311V21.6097H11.5314V7.79706ZM18.5568 7.79706H13.4911V21.6097H18.7195L18.5568 7.79706ZM25.7448 7.79706H20.5165V21.6097H25.7448V7.79706ZM32.7701 7.79706H27.5418V21.6097H32.7701V7.79706ZM39.7954 7.79706H34.5671V21.3645L34.8112 21.6073H39.793V7.79706H39.7954ZM46.9835 7.79706H41.7551V21.6097H46.9835V7.79706Z" fill="#D5D7D1"/>
<path d="M62.7251 75.3354C57.9208 70.5571 64.6725 62.903 70.0216 67.186C76.0584 72.0183 68.0545 80.6358 62.7251 75.3354ZM67.522 70.562C66.292 69.3386 64.5911 71.3686 65.7768 72.3787C66.9773 73.4034 68.6486 71.6799 67.522 70.562Z" fill="#D5D7D1"/>
<path d="M17.5387 66.0141C24.7218 65.3251 25.6412 76.0634 18.9462 76.8381C11.2257 77.7305 10.4813 66.6907 17.5387 66.0141ZM19.0004 70.5619C17.4746 69.0419 15.6874 72.3075 17.832 72.6213C19.173 72.8174 19.7991 71.3587 19.0004 70.5619Z" fill="#D5D7D1"/>
<path d="M60.8689 31.1147C60.9823 30.617 61.9092 30.1782 62.4194 30.2052C62.7916 30.2248 63.6445 30.8205 63.6445 31.1147V33.9586H60.8664C60.9897 33.1422 60.6964 31.86 60.8664 31.1147H60.8689Z" fill="url(#paint0_linear_411_18360)"/>
<path d="M67.0315 23.4288C67.803 23.1983 68.513 23.7426 68.3182 24.5345C68.2246 24.9169 66.4892 27.3294 66.1465 27.4323C65.3405 27.6702 64.7784 26.9396 65.0299 26.155C65.1408 25.8069 66.7406 23.5195 67.0339 23.4312L67.0315 23.4288Z" fill="#D5D7D1"/>
<path d="M61.9683 22.6124C62.3849 22.4923 62.8952 22.6761 63.0727 23.0733C63.2082 23.3798 63.2354 26.3291 63.1269 26.6944C62.9395 27.3171 61.919 27.4642 61.5123 26.9003C61.251 26.5375 61.2732 23.3822 61.5123 22.9801C61.5862 22.8576 61.8278 22.6541 61.9659 22.6124H61.9683Z" fill="#D5D7D1"/>
<path d="M56.7351 23.4264C57.1418 23.3014 57.4549 23.3725 57.7778 23.6274C57.9429 23.7574 59.3431 25.8119 59.4343 26.0399C59.8435 27.0818 58.9635 27.8811 58.081 27.224C57.8172 27.0279 56.3924 24.9783 56.2544 24.6449C56.0745 24.2085 56.2421 23.5759 56.7351 23.4239V23.4264Z" fill="#D5D7D1"/>
<path d="M79.9852 59.9561H78.3509V63.6924H79.9852V59.9561Z" fill="#D5D7D1"/>
<path d="M26.398 35.9078C25.7472 38.3178 28.5845 39.8305 29.9131 41.4289C30.7783 42.4684 31.1727 43.3069 31.4192 44.6431C31.5671 45.4448 31.5351 47.6145 31.7791 48.0214C32.5359 49.2791 34.6361 47.3007 35.3805 46.7932C36.4257 50.8041 36.2482 55.1582 32.6863 57.8403C32.738 57.0166 33.1053 56.1634 33.1004 55.3298C33.0979 54.6605 32.5162 51.8044 32.0725 51.3827C31.328 50.6766 30.5441 51.7284 30.4825 51.6646C30.3272 50.0294 29.0232 48.9997 27.9411 47.9234C27.6527 47.3472 29.287 46.6902 28.5352 45.7193C27.7833 44.7485 24.7119 46.6265 24.0217 47.2737C22.6117 48.6 22.1187 50.2402 22.3085 52.1525C20.9256 51.2356 20.6446 52.2113 20.3932 53.4151C20.0826 54.9082 20.1738 56.237 20.6742 57.6761C17.5608 55.3691 16.8756 51.5813 17.408 47.9283C18.4409 48.3745 19.2149 48.3966 20.2354 47.8989C22.3627 46.8618 21.002 45.2756 20.9996 43.4589C20.9996 41.1838 22.0842 38.9405 23.7752 37.445C24.108 37.1508 26.1071 35.697 26.3906 35.9054L26.398 35.9078Z" fill="url(#paint1_linear_411_18360)"/>
<path d="M22.168 54.4497C25.0989 54.3369 23.9675 52.8953 24.103 51.0933C24.1992 49.8283 24.9905 48.7226 26.0677 48.095C26.3068 49.4949 28.0496 50.1715 28.5549 51.3924C28.969 52.3903 28.4809 54.5183 29.7578 54.5919C30.2138 54.6188 30.8868 53.9569 31.0569 54.2633C32.4102 61.4467 21.1278 61.4859 22.168 54.4497Z" fill="url(#paint2_linear_411_18360)"/>
</g>
<defs>
<linearGradient id="paint0_linear_411_18360" x1="60.8119" y1="30.3542" x2="64.1993" y2="33.132" gradientUnits="userSpaceOnUse">
<stop stop-color="#21DEFF"/>
<stop offset="0.501932" stop-color="#A099FF"/>
<stop offset="1" stop-color="#E17DFF"/>
</linearGradient>
<linearGradient id="paint1_linear_411_18360" x1="17.2444" y1="36.7633" x2="37.3827" y2="55.4011" gradientUnits="userSpaceOnUse">
<stop stop-color="#21DEFF"/>
<stop offset="0.501932" stop-color="#A099FF"/>
<stop offset="1" stop-color="#E17DFF"/>
</linearGradient>
<linearGradient id="paint2_linear_411_18360" x1="22.1001" y1="48.5588" x2="32.628" y2="57.5104" gradientUnits="userSpaceOnUse">
<stop stop-color="#21DEFF"/>
<stop offset="0.501932" stop-color="#A099FF"/>
<stop offset="1" stop-color="#E17DFF"/>
</linearGradient>
<clipPath id="clip0_411_18360">
<rect width="80" height="71" fill="white" transform="translate(0 6)"/>
</clipPath>
</defs>
</svg>
