<svg width="80" height="80" viewBox="0 0 80 80" fill="none" xmlns="http://www.w3.org/2000/svg">
<g clip-path="url(#clip0_412_18451)">
<path d="M22.8837 64.8721C22.831 64.7805 21.4503 63.8623 21.1794 63.6165C20.7192 63.2019 20.2349 62.703 19.8083 62.2524C16.565 58.8035 12.363 53.9665 9.50325 50.2164C9.24677 49.879 8.84646 49.4813 8.8105 49.074C8.69304 47.7774 10.232 46.394 11.4569 47.0351L26.7789 60.7268C28.6559 61.9439 30.9379 62.7778 32.81 63.9563C35.0393 65.359 35.0824 68.8488 36.058 71.1407L31.9926 79L23.5213 77.4841C23.948 76.1778 24.7414 74.686 23.8929 73.3797L3.8965 53.2651C2.90172 51.9685 2.90172 50.9611 3.11026 49.4211C4.28723 40.7351 6.70347 31.854 8.06022 23.1656C8.30472 22.5366 8.90159 21.9437 9.57037 21.787C10.9199 21.4761 10.836 22.6354 10.7977 23.6356C10.5484 30.1862 8.93994 37.1296 8.66667 43.7381C8.42457 45.389 8.11295 44.8973 7.24281 45.9626C5.23647 48.4209 6.06346 50.132 7.76298 52.2698C10.8001 56.0874 14.6618 60.7003 17.9841 64.2359C19.1946 65.5228 20.7455 66.9062 22.3755 67.5859C22.6033 67.5377 23.0275 65.1348 22.8765 64.8745L22.8837 64.8721Z" fill="#D5D7D1"/>
<path d="M56.4044 77.4841L47.9499 78.8241L43.9012 71.0708C44.5125 69.4995 44.7977 67.5979 45.4234 66.0603C46.6099 63.1489 50.8024 62.5319 53.1443 60.7195L68.4712 47.0302C69.78 46.3458 71.6018 48.0401 71.0217 49.4427L59.5182 63.0163C59.0843 63.4405 57.2481 64.6335 57.0827 64.995C56.9773 65.2288 57.3176 67.4051 57.4615 67.5136C58.0655 67.9787 61.3303 64.8649 61.8649 64.3081C65.8344 60.1628 69.3414 55.1691 73.2558 50.9249C74.6557 48.6378 73.3612 46.2108 71.4388 44.772L69.1376 23.6211C68.6582 20.8085 71.3094 21.4785 71.9709 23.3608L77.0024 50.4646C77.0264 51.0985 76.813 51.9806 76.5326 52.5445C69.9262 59.6784 62.8165 66.3881 56.0352 73.3773C55.1651 74.7173 56.016 76.1296 56.4068 77.4817L56.4044 77.4841Z" fill="#D5D7D1"/>
<path d="M41.5545 23.2451C41.31 22.9486 41.3196 22.6329 41.5545 22.3316C42.1274 19.5504 44.8313 16.7113 47.7102 16.4077C48.53 16.3209 51.5335 16.5185 52.2095 16.8752C52.5211 17.0415 52.4732 17.2054 52.4804 17.5307C52.5139 19.1817 51.4472 22.2208 50.2751 23.4041C48.2927 25.4069 42.2592 27.2844 41.5545 23.2451Z" fill="url(#paint0_linear_412_18451)"/>
<path d="M39.9628 3.74512C42.6572 6.09254 44.5053 8.32187 43.7598 12.1298C42.6859 17.6176 37.9014 18.5744 36.3601 12.8504C35.2286 8.64241 36.9857 6.40826 39.9628 3.74512Z" fill="url(#paint1_linear_412_18451)"/>
<path d="M30.3098 16.4341C33.5099 16.1859 35.7344 17.268 37.4291 20.0011C39.6225 23.5391 37.9373 26.3589 33.788 25.4912C30.5376 24.8116 28.5696 22.816 27.8097 19.6179C27.6803 19.0684 27.1912 17.1499 27.7186 16.8728C28.0902 16.6776 29.8041 16.4703 30.3098 16.4317V16.4341Z" fill="url(#paint2_linear_412_18451)"/>
<path d="M27.4693 29.3474C31.1009 28.5231 34.1044 28.393 36.7004 31.4008C40.6628 35.992 37.4579 39.6553 32.0094 37.3344C28.6702 35.9125 27.582 32.789 27.4693 29.345V29.3474Z" fill="url(#paint3_linear_412_18451)"/>
<path d="M52.4564 29.3474C52.5067 33.8301 49.9946 37.7152 45.2724 38.0309C40.2097 38.3683 41.0008 33.7265 43.5968 31.0127C46.1353 28.3592 49.1221 28.5978 52.4564 29.3474Z" fill="url(#paint4_linear_412_18451)"/>
<path d="M21.0859 18.9961C21.1866 19.1407 19.8562 21.0398 19.6549 21.4134C15.8962 28.4027 16.9486 36.8886 22.2988 42.6921C22.3683 43.0753 20.6568 44.1405 20.4147 44.5743C13.5351 37.332 12.7513 25.4624 19.0724 17.6248L21.0835 18.9961H21.0859Z" fill="#D5D7D1"/>
<path d="M61.0834 17.6248C61.1913 17.6874 62.2316 19.4564 62.3922 19.736C66.985 27.8387 65.832 37.7899 59.511 44.5719C59.2856 44.1429 57.5717 42.9957 57.6269 42.6896C57.6508 42.5571 59.0651 40.9399 59.3168 40.5688C63.7442 34.0832 63.5548 25.4744 58.8542 19.2034C59.1826 18.8925 60.7335 17.4175 61.0834 17.6223V17.6248Z" fill="#D5D7D1"/>
<path d="M41.2501 18.3695C41.3148 21.3484 41.3675 24.3466 41.4011 27.3592C41.6839 27.7713 42.4918 27.8388 42.916 28.0436C42.7315 28.3208 41.2501 29.6029 41.2501 29.721V59.4952H38.6732V29.721C38.6732 29.3812 36.8802 28.0942 37.0073 27.9713C37.2949 28.0316 38.6732 27.4773 38.6732 27.2844V18.372C39.3228 18.4997 40.7155 18.196 41.2501 18.372V18.3695Z" fill="#D5D7D1"/>
<path d="M23.9768 24.1609C21.9896 28.422 22.4163 33.6952 25.1753 37.4911L22.9197 39.089C20.3788 35.1196 19.4415 30.6055 20.537 25.954C20.6568 25.4479 21.2177 23.5608 21.479 23.2403C21.6588 23.021 21.6348 23.1463 21.8026 23.2114C22.5337 23.4837 23.2241 23.9368 23.9768 24.1609Z" fill="#D5D7D1"/>
<path d="M54.9062 37.7031C54.7408 37.4212 55.6589 36.2089 55.8243 35.8426C57.5693 32.0394 57.5933 28.1616 56.1143 24.2597C56.2246 23.8741 57.9289 23.4788 58.298 23.1077C60.8941 28.0676 60.139 34.4543 57.0084 39.019L54.9014 37.7007L54.9062 37.7031Z" fill="#D5D7D1"/>
<path d="M30.643 1V3.59084H33.1432C33.16 3.59084 33.3709 3.80293 33.3709 3.8198V6.33352H30.643V8.92436H28.0662V6.33352H25.3383V3.8198C25.3383 3.80293 25.5493 3.59084 25.566 3.59084H28.0662V1H30.643Z" fill="#D5D7D1"/>
<path d="M51.8571 1V3.59084H54.3573C54.374 3.59084 54.585 3.80293 54.585 3.8198V6.33352H51.8571V8.92436H49.2803V6.33352H46.5524V3.8198C46.5524 3.80293 46.7633 3.59084 46.7801 3.59084H49.2803V1H51.8571Z" fill="#D5D7D1"/>
<path d="M13.5207 11.6646H16.0976V14.2554H13.5207V16.9981H10.7929V14.2554H8.21603V11.6646H10.7929V9.15083C10.7929 9.13396 11.0038 8.92188 11.0206 8.92188H13.293C13.3098 8.92188 13.5207 9.13396 13.5207 9.15083V11.6646Z" fill="#D5D7D1"/>
<path d="M69.1304 8.92188V11.6646H71.7073V14.2554H69.1304V16.9981H66.6303C66.6135 16.9981 66.4025 16.786 66.4025 16.7691V14.2554H63.8257V11.6646H66.4025V9.15083C66.4025 9.13396 66.6135 8.92188 66.6303 8.92188H69.1304Z" fill="#D5D7D1"/>
<path d="M41.5545 22.3317C41.5545 22.6354 41.5545 22.9414 41.5545 23.2451C41.5545 23.2644 41.3987 23.4186 41.3963 23.6139C41.3891 24.8623 41.4131 26.1131 41.4035 27.3591C40.8546 26.5638 41.5042 19.789 41.2525 18.3695C41.4059 18.4201 41.3891 18.4346 41.4083 18.5912C41.5305 19.5577 41.3867 20.9338 41.3987 21.9629C41.3987 22.1606 41.5569 22.3124 41.5569 22.3317H41.5545Z" fill="#D5D7D1"/>
<path d="M27.4573 41.3473C31.0889 40.523 34.0924 40.3929 36.6884 43.4007C40.6508 47.9919 37.4459 51.6552 31.9974 49.3343C28.6583 47.9123 27.57 44.7889 27.4573 41.3449V41.3473Z" fill="url(#paint5_linear_412_18451)"/>
<path d="M52.4444 41.3472C52.4947 45.83 49.9826 49.7151 45.2604 50.0308C40.1978 50.3682 40.9888 45.7264 43.5848 43.0126C46.1233 40.3591 49.1101 40.5977 52.4444 41.3472Z" fill="url(#paint6_linear_412_18451)"/>
</g>
<defs>
<linearGradient id="paint0_linear_412_18451" x1="41.3747" y1="16.7572" x2="49.5882" y2="27.4803" gradientUnits="userSpaceOnUse">
<stop stop-color="#21DEFF"/>
<stop offset="0.501932" stop-color="#A099FF"/>
<stop offset="1" stop-color="#E17DFF"/>
</linearGradient>
<linearGradient id="paint1_linear_412_18451" x1="36.0139" y1="4.26406" x2="47.0069" y2="11.5518" gradientUnits="userSpaceOnUse">
<stop stop-color="#21DEFF"/>
<stop offset="0.501932" stop-color="#A099FF"/>
<stop offset="1" stop-color="#E17DFF"/>
</linearGradient>
<linearGradient id="paint2_linear_412_18451" x1="27.4791" y1="16.7697" x2="35.7319" y2="27.3551" gradientUnits="userSpaceOnUse">
<stop stop-color="#21DEFF"/>
<stop offset="0.501932" stop-color="#A099FF"/>
<stop offset="1" stop-color="#E17DFF"/>
</linearGradient>
<linearGradient id="paint3_linear_412_18451" x1="27.4693" y1="29.2095" x2="35.6634" y2="39.8429" gradientUnits="userSpaceOnUse">
<stop stop-color="#21DEFF"/>
<stop offset="0.501932" stop-color="#A099FF"/>
<stop offset="1" stop-color="#E17DFF"/>
</linearGradient>
<linearGradient id="paint4_linear_412_18451" x1="41.5529" y1="29.2129" x2="49.7563" y2="39.7773" gradientUnits="userSpaceOnUse">
<stop stop-color="#21DEFF"/>
<stop offset="0.501932" stop-color="#A099FF"/>
<stop offset="1" stop-color="#E17DFF"/>
</linearGradient>
<linearGradient id="paint5_linear_412_18451" x1="27.4573" y1="41.2094" x2="35.6514" y2="51.8428" gradientUnits="userSpaceOnUse">
<stop stop-color="#21DEFF"/>
<stop offset="0.501932" stop-color="#A099FF"/>
<stop offset="1" stop-color="#E17DFF"/>
</linearGradient>
<linearGradient id="paint6_linear_412_18451" x1="41.5409" y1="41.2128" x2="49.7444" y2="51.7772" gradientUnits="userSpaceOnUse">
<stop stop-color="#21DEFF"/>
<stop offset="0.501932" stop-color="#A099FF"/>
<stop offset="1" stop-color="#E17DFF"/>
</linearGradient>
<clipPath id="clip0_412_18451">
<rect width="74" height="78" fill="white" transform="translate(3 1)"/>
</clipPath>
</defs>
</svg>
