<svg width="80" height="80" viewBox="0 0 80 80" fill="none" xmlns="http://www.w3.org/2000/svg">
<g clip-path="url(#clip0_412_18428)">
<path d="M30.7549 78C30.0929 77.4902 29.5209 76.9831 30.1665 76.168C30.2618 76.0481 30.7331 75.6583 30.8257 75.6583H34.702V69.8026H27.023C26.8187 69.8026 25.8789 69.2983 25.6446 69.132C22.937 67.1856 23.8604 61.6598 27.6005 61.5999L54.1622 61.6735C57.5237 62.385 57.9731 67.6381 55.2001 69.3119C55.0421 69.4074 54.1677 69.8026 54.0832 69.8026H46.4043V75.6583H50.2805C51.1686 75.6583 51.4246 77.6619 50.3541 78H30.7549Z" fill="#D5D7D1"/>
<path d="M78 70.2416V78H60.008C59.6566 77.7083 59.3651 77.5366 59.2861 77.0404C59.1063 75.9009 59.1335 71.6564 59.2888 70.476C59.4904 68.9331 61.0049 67.5455 62.5603 67.4555C66.4502 67.8236 71.2036 66.9785 74.9872 67.4746C76.51 67.6736 77.4906 68.8922 77.9973 70.2443L78 70.2416Z" fill="#D5D7D1"/>
<path d="M21.101 78H3.84172C3.49032 77.7083 3.19885 77.5366 3.11986 77.0404C2.94552 75.9336 2.97004 71.471 3.1471 70.3506C3.40588 68.7095 4.94766 67.5782 6.54393 67.4555C10.4502 67.1529 14.7432 67.6954 18.6903 67.4609C20.2729 67.6272 21.6649 69.0257 21.8338 70.6068C21.97 71.8636 22.0108 75.8518 21.8229 77.0404C21.7439 77.5366 21.4524 77.7083 21.101 78Z" fill="#D5D7D1"/>
<path d="M38.0389 15.9789C43.051 15.7281 50.0572 16.2024 54.6498 18.2988C59.3733 20.4551 59.1935 23.2493 54.5491 25.3293C47.6355 28.4262 33.5878 28.4235 26.6634 25.373C21.7711 23.2166 21.7738 20.3651 26.6634 18.2088C29.9785 16.7476 34.4241 16.1588 38.0361 15.9789H38.0389Z" fill="#D5D7D1"/>
<path d="M23.0024 14.1061C23.3075 12.2796 25.7373 10.753 27.2927 10.0552C30.2945 8.71121 33.7867 8.19325 37.0446 7.8852C37.3606 6.43765 36.1402 3.23996 38.2813 3.0464C39.0359 2.97825 42.9584 2.95644 43.4433 3.16363C44.5819 3.64887 43.8655 6.7975 44.0644 7.8852C47.8371 8.25868 52.6314 8.93747 55.813 11.132C56.5158 11.6172 58.1066 13.2474 58.1066 14.1061V17.5464L54.3393 15.6818C46.7421 12.8194 33.2964 12.8058 25.8299 16.058L23.0024 17.5464C23.1249 16.4996 22.8362 15.1039 23.0024 14.1061Z" fill="#D5D7D1"/>
<path d="M24.871 28.8597C26.1268 28.7397 27.3989 29.165 28.4013 29.9283C29.4855 30.7516 33.705 35.0206 34.2225 36.1056C34.9962 37.7249 34.7347 38.9625 34.1381 40.5709C34.7755 41.356 36.8621 42.79 35.432 43.8177C34.1708 44.7255 33.2773 42.9017 32.4056 42.3047C30.7876 42.929 29.4555 43.1416 27.8456 42.3429C26.7234 41.7868 21.6839 36.7135 21.1419 35.5849C19.7227 32.6189 21.5832 29.1786 24.871 28.8624V28.8597Z" fill="url(#paint0_linear_412_18428)"/>
<path d="M55.2954 28.8597C59.0763 28.4944 61.6614 32.3954 59.8663 35.7757C59.3079 36.8253 54.402 41.7459 53.3587 42.2883C51.7215 43.1416 50.3677 42.9508 48.7061 42.3047C47.8044 42.9181 47.058 44.6082 45.7669 43.8777C44.1679 42.9726 46.3144 41.3097 46.9736 40.5709C46.1019 38.4555 46.1891 36.7571 47.6491 34.9634C48.6489 33.7366 52.7158 29.672 54.0151 29.1868C54.3938 29.045 54.8977 28.8978 55.2982 28.8597H55.2954Z" fill="url(#paint1_linear_412_18428)"/>
<path d="M53.4268 59.2636H27.6849C27.6686 56.941 29.3575 55.0409 31.5993 54.6184C37.2162 54.8447 43.2581 54.1877 48.8287 54.5748C51.49 54.7574 53.3342 56.5812 53.4295 59.2664L53.4268 59.2636Z" fill="#D5D7D1"/>
<path d="M11.7086 40.5682C19.7254 39.6386 20.608 51.6633 12.9835 52.2358C5.35898 52.8083 4.40286 41.4187 11.7086 40.5682Z" fill="url(#paint2_linear_412_18428)"/>
<path d="M67.8749 40.5682C75.8916 39.6386 76.7742 51.6633 69.1497 52.2358C61.5252 52.8083 60.5691 41.4187 67.8749 40.5682Z" fill="url(#paint3_linear_412_18428)"/>
<path d="M15.9826 53.8469V65.1193H8.96284V53.8469C11.3137 54.8065 13.6318 54.8038 15.9826 53.8469Z" fill="url(#paint4_linear_412_18428)"/>
<path d="M72.1488 53.8469V65.1193H65.1291V53.8469C67.4799 54.8038 69.798 54.8065 72.1488 53.8469Z" fill="url(#paint5_linear_412_18428)"/>
<path d="M20.0795 43.6023C19.4503 41.3942 17.459 39.3987 15.2526 38.7717L18.5432 35.4077C19.2269 37.7794 21.2535 39.1833 22.8553 40.8953L20.0795 43.6023Z" fill="#D5D7D1"/>
<path d="M65.8591 38.7689C63.6745 39.3768 61.6315 41.4105 61.0322 43.5995L58.2564 40.8925C59.8091 39.1751 61.9611 37.8066 62.4977 35.4049L65.8591 38.7689Z" fill="#D5D7D1"/>
</g>
<defs>
<linearGradient id="paint0_linear_412_18428" x1="20.6606" y1="29.4487" x2="34.6179" y2="44.6552" gradientUnits="userSpaceOnUse">
<stop stop-color="#21DEFF"/>
<stop offset="0.501932" stop-color="#A099FF"/>
<stop offset="1" stop-color="#E17DFF"/>
</linearGradient>
<linearGradient id="paint1_linear_412_18428" x1="45.1873" y1="29.4447" x2="59.1396" y2="44.6503" gradientUnits="userSpaceOnUse">
<stop stop-color="#21DEFF"/>
<stop offset="0.501932" stop-color="#A099FF"/>
<stop offset="1" stop-color="#E17DFF"/>
</linearGradient>
<linearGradient id="paint2_linear_412_18428" x1="6.71603" y1="40.9866" x2="17.4939" y2="52.4858" gradientUnits="userSpaceOnUse">
<stop stop-color="#21DEFF"/>
<stop offset="0.501932" stop-color="#A099FF"/>
<stop offset="1" stop-color="#E17DFF"/>
</linearGradient>
<linearGradient id="paint3_linear_412_18428" x1="62.8823" y1="40.9866" x2="73.6601" y2="52.4858" gradientUnits="userSpaceOnUse">
<stop stop-color="#21DEFF"/>
<stop offset="0.501932" stop-color="#A099FF"/>
<stop offset="1" stop-color="#E17DFF"/>
</linearGradient>
<linearGradient id="paint4_linear_412_18428" x1="8.96284" y1="54.2978" x2="18.5909" y2="60.815" gradientUnits="userSpaceOnUse">
<stop stop-color="#21DEFF"/>
<stop offset="0.501932" stop-color="#A099FF"/>
<stop offset="1" stop-color="#E17DFF"/>
</linearGradient>
<linearGradient id="paint5_linear_412_18428" x1="65.1291" y1="54.2978" x2="74.7571" y2="60.815" gradientUnits="userSpaceOnUse">
<stop stop-color="#21DEFF"/>
<stop offset="0.501932" stop-color="#A099FF"/>
<stop offset="1" stop-color="#E17DFF"/>
</linearGradient>
<clipPath id="clip0_412_18428">
<rect width="75" height="75" fill="white" transform="translate(3 3)"/>
</clipPath>
</defs>
</svg>
