<svg width="24" height="24" viewBox="0 0 24 24" fill="none" xmlns="http://www.w3.org/2000/svg">
<path d="M12 21.3633C11.3229 21.3633 10.6849 21.1289 10.0859 20.6602C9.49349 20.1914 8.9694 19.5339 8.51367 18.6875C8.06445 17.8411 7.70964 16.8483 7.44922 15.709C7.19531 14.5632 7.06836 13.3164 7.06836 11.9688C7.06836 10.6211 7.19531 9.37435 7.44922 8.22852C7.70964 7.07617 8.06445 6.07682 8.51367 5.23047C8.96289 4.3776 9.48372 3.7168 10.0762 3.24805C10.6751 2.7793 11.3164 2.54492 12 2.54492C12.6836 2.54492 13.3216 2.7793 13.9141 3.24805C14.513 3.7168 15.0371 4.3776 15.4863 5.23047C15.9421 6.07682 16.2969 7.07617 16.5508 8.22852C16.8047 9.37435 16.9316 10.6211 16.9316 11.9688C16.9316 13.3164 16.8014 14.5632 16.541 15.709C16.2871 16.8483 15.9323 17.8411 15.4766 18.6875C15.0273 19.5339 14.5033 20.1914 13.9043 20.6602C13.3118 21.1289 12.6771 21.3633 12 21.3633ZM12 3.72656C11.5247 3.72656 11.069 3.94792 10.6328 4.39062C10.1966 4.82682 9.80924 5.42578 9.4707 6.1875C9.13216 6.94922 8.86523 7.82812 8.66992 8.82422C8.47461 9.8138 8.37695 10.862 8.37695 11.9688C8.37695 13.0625 8.47461 14.1009 8.66992 15.084C8.86523 16.0671 9.13216 16.9427 9.4707 17.7109C9.80924 18.4727 10.1966 19.0716 10.6328 19.5078C11.069 19.9505 11.5247 20.1719 12 20.1719C12.4753 20.1719 12.931 19.9505 13.3672 19.5078C13.8034 19.0716 14.1908 18.4727 14.5293 17.7109C14.8678 16.9427 15.1348 16.0671 15.3301 15.084C15.5254 14.1009 15.623 13.0625 15.623 11.9688C15.623 10.862 15.5254 9.8138 15.3301 8.82422C15.1348 7.82812 14.8678 6.94922 14.5293 6.1875C14.1908 5.42578 13.8034 4.82682 13.3672 4.39062C12.931 3.94792 12.4753 3.72656 12 3.72656ZM11.3652 2.68164H12.6445V21.1777H11.3652V2.68164ZM12 15.6211C13.0026 15.6211 13.9531 15.7057 14.8516 15.875C15.75 16.0378 16.5573 16.2754 17.2734 16.5879C17.9961 16.8939 18.5853 17.2552 19.041 17.6719L18.0547 18.4824C17.625 18.1439 17.1074 17.8574 16.502 17.623C15.903 17.3822 15.2227 17.2031 14.4609 17.0859C13.7057 16.9622 12.8854 16.9004 12 16.9004C11.1146 16.9004 10.291 16.9622 9.5293 17.0859C8.77409 17.2031 8.09375 17.3822 7.48828 17.623C6.88932 17.8574 6.375 18.1439 5.94531 18.4824L4.95898 17.6719C5.41471 17.2552 6.00065 16.8939 6.7168 16.5879C7.43945 16.2754 8.25 16.0378 9.14844 15.875C10.0469 15.7057 10.9974 15.6211 12 15.6211ZM21.0137 11.3047V12.584H2.98633V11.3047H21.0137ZM12 8.32617C10.9974 8.32617 10.0469 8.24479 9.14844 8.08203C8.25 7.91276 7.43945 7.67513 6.7168 7.36914C6.00065 7.05664 5.41471 6.69206 4.95898 6.27539L5.94531 5.46484C6.375 5.80339 6.88932 6.0931 7.48828 6.33398C8.09375 6.56836 8.77409 6.7474 9.5293 6.87109C10.291 6.98828 11.1146 7.04688 12 7.04688C12.8854 7.04688 13.7057 6.98828 14.4609 6.87109C15.2227 6.7474 15.903 6.56836 16.502 6.33398C17.1074 6.0931 17.625 5.80339 18.0547 5.46484L19.041 6.27539C18.5853 6.69206 17.9961 7.05664 17.2734 7.36914C16.5573 7.67513 15.75 7.91276 14.8516 8.08203C13.9531 8.24479 13.0026 8.32617 12 8.32617ZM12 21.9102C10.6393 21.9102 9.35677 21.6497 8.15234 21.1289C6.95443 20.6081 5.89648 19.8887 4.97852 18.9707C4.06055 18.0527 3.34115 16.9948 2.82031 15.7969C2.29948 14.5924 2.03906 13.3099 2.03906 11.9492C2.03906 10.5885 2.29948 9.30924 2.82031 8.11133C3.34115 6.9069 4.05729 5.8457 4.96875 4.92773C5.88672 4.00977 6.94466 3.29036 8.14258 2.76953C9.34701 2.2487 10.6296 1.98828 11.9902 1.98828C13.3509 1.98828 14.6335 2.2487 15.8379 2.76953C17.0423 3.29036 18.1035 4.00977 19.0215 4.92773C19.9395 5.8457 20.6589 6.9069 21.1797 8.11133C21.7005 9.30924 21.9609 10.5885 21.9609 11.9492C21.9609 13.3099 21.7005 14.5924 21.1797 15.7969C20.6589 16.9948 19.9395 18.0527 19.0215 18.9707C18.1035 19.8887 17.0423 20.6081 15.8379 21.1289C14.64 21.6497 13.3607 21.9102 12 21.9102ZM12 20.582C13.1784 20.582 14.2884 20.3542 15.3301 19.8984C16.3717 19.4492 17.2897 18.8275 18.084 18.0332C18.8783 17.2389 19.5 16.321 19.9492 15.2793C20.4049 14.2376 20.6328 13.1276 20.6328 11.9492C20.6328 10.7708 20.4049 9.66081 19.9492 8.61914C19.5 7.57747 18.875 6.65951 18.0742 5.86523C17.2799 5.07096 16.362 4.44922 15.3203 4C14.2786 3.54427 13.1686 3.31641 11.9902 3.31641C10.8118 3.31641 9.70182 3.54427 8.66016 4C7.61849 4.44922 6.70052 5.07096 5.90625 5.86523C5.11849 6.65951 4.49674 7.57747 4.04102 8.61914C3.5918 9.66081 3.36719 10.7708 3.36719 11.9492C3.36719 13.1276 3.5918 14.2376 4.04102 15.2793C4.49674 16.321 5.12174 17.2389 5.91602 18.0332C6.71029 18.8275 7.62826 19.4492 8.66992 19.8984C9.71159 20.3542 10.8216 20.582 12 20.582Z" fill="black"/>
</svg>
