<svg width="80" height="80" viewBox="0 0 80 80" fill="none" xmlns="http://www.w3.org/2000/svg">
<g clip-path="url(#clip0_411_18386)">
<path d="M60.3937 2V8.22911H53.7426L55.4424 5.19052L55.0626 5.11727L28.3774 10.7197H62.0181C62.1985 10.7197 62.8693 10.0468 62.8693 9.86235V2H65.7302C66.5087 2 76.7587 10.1906 78.4801 10.9638C78.6956 11.1239 78.8599 11.3464 78.9192 11.6095C79.0431 12.1657 79.0215 14.8473 78.8357 15.2868C78.7656 15.4496 78.6256 15.6042 78.4855 15.7127L69.0544 19.5967V11H74L66.5814 5.73584V64.2938H69.4423C69.6228 64.2938 70.2935 64.9666 70.2935 65.1511V70.5229H50.4965V65.1511C50.4965 64.9693 51.1646 64.2938 51.3478 64.2938H55.4478V20.6873H39.3629V24.7352C42.1079 25.6033 42.7167 29.2252 40.4485 31.0429L47.9562 37.6546C48.1125 38.1701 48.1233 42.8853 47.9913 43.4686C47.8458 44.1279 47.3151 44.3124 46.7171 44.3666C41.2109 44.8658 34.9693 43.9759 29.3822 44.3639C28.5472 44.2662 28.2912 43.8376 28.2185 43.0454C28.1458 42.2532 28.1188 38.1104 28.3424 37.5488L35.8017 31.0457C33.5334 29.2279 34.1423 25.606 36.8873 24.7379V20.69H9.27546C8.68012 20.69 8.09287 19.2793 8.59931 18.7611L14.8382 11.1836L15.3824 10.7956L57.5705 2.0407L60.3937 2ZM25.4385 13.2129H18.6338L22.1116 17.4181L25.4385 13.2129ZM37.8113 13.2129H31.0066L34.4844 17.4181L37.8113 13.2129ZM50.1867 13.2129H43.3821L46.8598 17.4181L50.1867 13.2129ZM19.2507 18.1968L15.773 13.9916L12.4461 18.1968H19.2507ZM31.6262 18.1968L28.1485 13.9916L24.8216 18.1968H31.6262ZM43.999 18.1968L40.5213 13.9916L37.1944 18.1968H43.999ZM51.733 18.1968V15.5489C51.0568 16.219 50.3699 16.9678 49.7988 17.7274C49.6803 17.8848 49.4998 17.9227 49.5671 18.194H51.733V18.1968ZM61.9399 20.6873H57.918V24.1139L61.9399 20.6873ZM64.1058 30.655V22.2446L58.6939 26.8378L64.1058 30.6523V30.655ZM57.918 29.4097V36.8841L63.1791 33.0696L57.918 29.407V29.4097ZM43.3794 36.8841L38.0672 32.3805L32.8627 36.8841H43.3794ZM64.1058 43.1159V35.6415L59.009 39.4425L64.1058 43.1186V43.1159ZM57.918 41.8679V49.3423L63.1791 45.5278L57.918 41.8652V41.8679ZM64.1058 55.5741V48.0997L59.009 51.9007L64.1058 55.5768V55.5741ZM57.918 62.7365L63.33 58.1434L57.918 54.3288V62.7392V62.7365ZM64.1058 64.2965V60.8699L60.0839 64.2965H64.1058Z" fill="url(#paint0_linear_411_18386)"/>
<path d="M18.9409 41.8679L23.4477 50.0206C23.5285 50.1888 24.0027 50.5876 24.1212 50.5876H44.3061V70.5229H33.1698V60.1673C33.1698 59.6545 32.3051 59.3425 31.8633 59.3045C27.1464 58.8732 21.791 59.6437 17.0041 59.3073C16.6242 59.215 15.8484 59.8716 15.8484 60.1673V70.5229H4.7121V41.8679H18.9409ZM10.5443 46.887C9.35627 47.1529 9.35896 49.0466 10.5443 49.3125C11.2446 49.4698 15.2989 49.459 16.0693 49.3369C17.4081 49.1253 17.4162 47.161 16.2013 46.887C15.5898 46.7487 11.1584 46.7487 10.5443 46.887ZM10.5443 53.1161C9.28623 53.4878 9.36974 55.3598 10.6762 55.566C13.8253 55.2377 17.9981 56.0408 21.0206 55.566C22.3864 55.3517 22.3917 53.3088 21.0206 53.0917L10.5443 53.1161ZM27.8683 53.1161C26.6103 53.4878 26.6938 55.3598 28.0003 55.566C31.1494 55.2377 35.3221 56.0408 38.3446 55.566C39.7104 55.3517 39.7158 53.3088 38.3446 53.0917L27.8683 53.1161Z" fill="#D5D7D1"/>
<path d="M77.7177 73.0161H1V77.9999H77.7177V73.0161Z" fill="#D5D7D1"/>
<path d="M30.6969 61.8032H18.3241V70.5256H30.6969V61.8032Z" fill="#D5D7D1"/>
<path d="M24.5091 26.9192V46.6972L20.5599 39.8495C20.1639 39.3503 19.5605 39.4344 19.5605 39.3774V26.9192H24.5091Z" fill="#D5D7D1"/>
<path d="M13.3728 26.9192H8.42422V39.3774H13.3728V26.9192Z" fill="#D5D7D1"/>
<path d="M77.7177 19.442V24.4258H71.53V21.4659L77.7177 19.442Z" fill="#D5D7D1"/>
</g>
<defs>
<linearGradient id="paint0_linear_411_18386" x1="8.40689" y1="4.74109" x2="71.0465" y2="74.882" gradientUnits="userSpaceOnUse">
<stop stop-color="#21DEFF"/>
<stop offset="0.501932" stop-color="#A099FF"/>
<stop offset="1" stop-color="#E17DFF"/>
</linearGradient>
<clipPath id="clip0_411_18386">
<rect width="78" height="76" fill="white" transform="translate(1 2)"/>
</clipPath>
</defs>
</svg>
